<svg xmlns="http://www.w3.org/2000/svg" xmlns:svg="http://www.w3.org/2000/svg" id="svg2" width="210mm" height="297mm" version="1.1" viewBox="0 50 720 744"><defs id="defs4"><filter style="color-interpolation-filters:sRGB" id="filter5631"><feFlood id="feFlood5633" flood-color="#000" flood-opacity=".498" result="flood"/><feComposite id="feComposite5635" in="flood" in2="SourceGraphic" operator="in" result="composite1"/><feGaussianBlur id="feGaussianBlur5637" in="composite1" result="blur" stdDeviation="10"/><feOffset id="feOffset5639" dx="0" dy="30" result="offset"/><feComposite id="feComposite5641" in="SourceGraphic" in2="offset" operator="over" result="composite2"/></filter></defs><metadata id="metadata7"/><g id="layer1"><path style="fill:none;fill-rule:evenodd;stroke:#000;stroke-width:0;stroke-linecap:butt;stroke-linejoin:miter;stroke-opacity:1;stroke-miterlimit:4;stroke-dasharray:none" id="path4315" d="m 248,142.36218 c -5,25 88,52 162,10 74,-42 167,23 167,23"/><g id="g4938" transform="matrix(1.6886255,0,0,1.6886255,-241.27456,-307.52376)"><g style="fill:#19aeff;stroke:#000;stroke-width:4;stroke-linejoin:round;stroke-miterlimit:4;stroke-dasharray:none;stroke-dashoffset:0;stroke-opacity:1" id="g4232"><path style="fill:#afafde;fill-rule:evenodd;stroke:#000;stroke-width:4;stroke-linecap:butt;stroke-linejoin:round;stroke-miterlimit:4;stroke-dasharray:none;stroke-dashoffset:0;stroke-opacity:1" id="path4242" d="m 180.57081,479.90445 139.42918,132.45773 206.5523,-96.39107 -177.06983,-82.7935 z" points="320 612.362 526.552 515.971 349.482 433.178 180.571 479.904"/><path style="fill:#353564;fill-rule:evenodd;stroke:#000;stroke-width:4;stroke-linecap:butt;stroke-linejoin:round;stroke-miterlimit:4;stroke-dasharray:none;stroke-dashoffset:0;stroke-opacity:1" id="path4234" d="m 174.19019,297.94859 6.38062,181.95586 168.91165,-46.72684 -5.34374,-152.38726 z" points="180.571 479.904 349.482 433.178 344.139 280.79 174.19 297.949"/><path style="fill:#e9e9ff;fill-rule:evenodd;stroke:#000;stroke-width:4;stroke-linecap:butt;stroke-linejoin:round;stroke-miterlimit:4;stroke-dasharray:none;stroke-dashoffset:0;stroke-opacity:1" id="path4244" d="m 344.13872,280.79035 174.86667,19.96628 7.5469,215.21448 -177.06983,-82.7935 z" points="519.005 300.757 526.552 515.971 349.482 433.178 344.139 280.79"/><path style="fill:#19aeff;fill-rule:evenodd;stroke:#000;stroke-width:4;stroke-linecap:butt;stroke-linejoin:round;stroke-miterlimit:4;stroke-dasharray:none;stroke-dashoffset:0;stroke-opacity:1" id="path4236" d="M 174.19019,297.94859 310.20516,333.04331 519.00539,300.75663 344.13872,280.79035 Z" points="310.205 333.043 519.005 300.757 344.139 280.79 174.19 297.949"/><path style="fill:#0084c8;fill-rule:evenodd;stroke:#000;stroke-width:4;stroke-linecap:butt;stroke-linejoin:round;stroke-miterlimit:4;stroke-dasharray:none;stroke-dashoffset:0;stroke-opacity:1" id="path4240" d="m 310.20516,333.04331 9.79483,279.31887 206.5523,-96.39107 -7.5469,-215.21448 z" points="320 612.362 526.552 515.971 519.005 300.757 310.205 333.043"/><path style="fill:#19aeff;fill-rule:evenodd;stroke:#000;stroke-width:4;stroke-linecap:butt;stroke-linejoin:round;stroke-miterlimit:4;stroke-dasharray:none;stroke-dashoffset:0;stroke-opacity:1" id="path4238" d="m 174.19019,297.94859 136.01497,35.09472 9.79483,279.31887 -139.42918,-132.45773 z" points="310.205 333.043 320 612.362 180.571 479.904 174.19 297.949"/></g><g id="g4349"><path style="fill:none;fill-rule:evenodd;stroke:#000;stroke-width:6;stroke-linecap:butt;stroke-linejoin:miter;stroke-miterlimit:4;stroke-dasharray:none;stroke-opacity:1" id="path4323" d="m 188.20933,351.51639 c 0,0 17.67712,-36.39407 54.07118,1.03984 17.69568,18.20128 30.1551,38.47373 46.79239,11.43813"/><path id="path4345" d="m 188.20933,375.51639 c 0,0 17.67712,-36.39407 54.07118,1.03984 17.69568,18.20128 30.1551,38.47373 46.79239,11.43813" style="fill:none;fill-rule:evenodd;stroke:#000;stroke-width:6;stroke-linecap:butt;stroke-linejoin:miter;stroke-miterlimit:4;stroke-dasharray:none;stroke-opacity:1"/><path style="fill:none;fill-rule:evenodd;stroke:#000;stroke-width:6;stroke-linecap:butt;stroke-linejoin:miter;stroke-miterlimit:4;stroke-dasharray:none;stroke-opacity:1" id="path4347" d="m 188.20933,399.51639 c 0,0 17.67712,-36.39407 54.07118,1.03984 17.69568,18.20128 30.1551,38.47373 46.79239,11.43813"/></g></g></g></svg>